<svg width="76" height="170" viewBox="0 0 76 170" fill="none" xmlns="http://www.w3.org/2000/svg">
<circle cx="34" cy="123" r="9" transform="rotate(-90 34 123)" fill="#C4C4C4"/>
<circle cx="1" cy="123" r="9" transform="rotate(-90 1 123)" fill="#C4C4C4"/>
<circle cx="1" cy="161" r="9" transform="rotate(-90 1 161)" fill="#C4C4C4"/>
<circle cx="34" cy="85" r="9" transform="rotate(-90 34 85)" fill="#C4C4C4"/>
<circle cx="1" cy="85" r="9" transform="rotate(-90 1 85)" fill="#C4C4C4"/>
<circle cx="67" cy="85" r="9" transform="rotate(-90 67 85)" fill="#C4C4C4"/>
<circle cx="34" cy="47" r="9" transform="rotate(-90 34 47)" fill="#C4C4C4"/>
<circle cx="1" cy="47" r="9" transform="rotate(-90 1 47)" fill="#C4C4C4"/>
<circle cx="67" cy="47" r="9" transform="rotate(-90 67 47)" fill="#C4C4C4"/>
<circle cx="34" cy="9" r="9" transform="rotate(-90 34 9)" fill="#C4C4C4"/>
<circle cx="1" cy="9" r="9" transform="rotate(-90 1 9)" fill="#C4C4C4"/>
<circle cx="67" cy="9" r="9" transform="rotate(-90 67 9)" fill="#C4C4C4"/>
</svg>
