<svg width="141" height="141" viewBox="0 0 141 141" fill="none" xmlns="http://www.w3.org/2000/svg">
<rect x="23.5082" y="12.2411" width="98.9301" height="107.449" fill="#FF9A00"/>
<path fill-rule="evenodd" clip-rule="evenodd" d="M47.4298 29.8309H62.0863L83.162 100.44H70.4313L65.1891 80.327H44.6485L39.2991 100.44H28.0658L47.43 33.1475V29.8309H47.4298ZM62.3004 69.9498L55.0254 40.1009L47.5367 69.9493H62.3004V69.9498ZM104.987 47.9653H93.4326V100.44H104.987V47.9659V47.9653ZM99.0606 27.5783C95.3175 27.5783 92.2831 30.5778 92.2831 34.2781C92.2831 37.9783 95.3175 40.9781 99.0606 40.9781C102.804 40.9781 105.838 37.9786 105.838 34.2784C105.838 30.5781 102.804 27.5783 99.0606 27.5783ZM140.85 140.85H0.149689V0.149658H140.85V140.85Z" fill="#330000"/>
</svg>
