<svg width="150" height="122" viewBox="0 0 150 122" fill="none" xmlns="http://www.w3.org/2000/svg">
<g clip-path="url(#clip0_29_205)">
<path d="M58.8457 67.4971C59.3912 57.767 64.1555 49.1954 71.3438 43.1186C78.3926 37.1502 87.8801 33.5022 98.2324 33.5022C108.574 33.5022 118.062 37.1502 125.116 43.1186C132.299 49.1948 137.064 57.767 137.614 67.4866C138.159 77.4838 134.141 86.7709 127.092 93.6551C119.905 100.658 109.68 105.052 98.2324 105.052C86.7844 105.052 76.5404 100.658 69.3574 93.6551C62.3033 86.7704 58.2949 77.4833 58.8457 67.4971Z" fill="white"/>
<path d="M78.0281 68.3649C78.3076 63.3727 80.7527 58.9741 84.4406 55.8563C88.0576 52.7942 92.9256 50.9221 98.2377 50.9221C103.544 50.9221 108.413 52.7942 112.032 55.8563C115.717 58.9741 118.162 63.3727 118.444 68.3602C118.724 73.4895 116.663 78.2549 113.046 81.787C109.358 85.3799 104.112 87.6346 98.2377 87.6346C92.3637 87.6346 87.1072 85.3799 83.4217 81.787C79.8023 78.2549 77.7457 73.4895 78.0281 68.3649Z" fill="#265787"/>
<path d="M45.9433 78.6211C45.9785 80.5781 46.6025 84.3832 47.5394 87.3539C49.5076 93.6428 52.8463 99.4611 57.4922 104.588C62.2599 109.859 68.1304 114.092 74.9121 117.097C82.0394 120.254 89.7621 121.862 97.7836 121.849C105.792 121.838 113.515 120.198 120.643 117.018C127.424 113.983 133.289 109.731 138.049 104.459C142.692 99.31 146.026 93.4817 148 87.1928C148.992 84.0152 149.619 80.7902 149.87 77.5541C150.116 74.3617 150.012 71.1521 149.561 67.9822C148.677 61.7649 146.525 55.9313 143.213 50.6133C140.184 45.7266 136.279 41.4486 131.636 37.8475L131.646 37.8399L84.7886 1.86036C84.7459 1.82872 84.7113 1.79474 84.6662 1.76544C81.5923 -0.594718 76.422 -0.586515 73.0412 1.77833C69.6228 4.17013 69.2314 8.12579 72.2736 10.6201L72.2607 10.6336L91.8046 26.5266L32.2365 26.5899H32.1568C27.2332 26.5957 22.5006 29.826 21.5631 33.9082C20.6004 38.0672 23.9449 41.5172 29.0642 41.5359L29.056 41.5541L59.2494 41.4955L5.37126 82.8516C5.30271 82.902 5.22829 82.9547 5.16501 83.0051C0.0825902 86.8969 -1.56038 93.3686 1.6406 97.4637C4.88962 101.629 11.7978 101.636 16.933 97.4877L46.3377 73.4227C46.3377 73.4227 45.9088 76.6711 45.9433 78.6211ZM121.503 89.4996C115.444 95.6725 106.962 99.1723 97.7841 99.191C88.5925 99.2068 80.1105 95.7381 74.0519 89.5764C71.0912 86.5734 68.9168 83.1182 67.575 79.4379C66.2562 75.8161 65.7487 71.9488 66.0884 68.1094C66.4084 64.3231 67.5357 60.7119 69.3345 57.4441C71.1017 54.2326 73.5357 51.3299 76.5416 48.8748C82.4302 44.076 89.9285 41.4774 97.7701 41.4668C105.62 41.4563 113.113 44.0309 119.008 48.8145C122.008 51.2584 124.44 54.1506 126.207 57.3574C128.029 60.6424 129.14 64.2743 129.466 68.0168C129.801 71.8539 129.292 75.7178 127.974 79.3371C126.63 83.0285 124.463 86.4838 121.503 89.4996Z" fill="#EA7600"/>
</g>
<defs>
<clipPath id="clip0_29_205">
<rect width="150" height="121.875" fill="white"/>
</clipPath>
</defs>
</svg>
