<svg width="111" height="126" viewBox="0 0 111 126" fill="none" xmlns="http://www.w3.org/2000/svg">
<path d="M10.0764 113.161L0 0H110.76L100.67 113.144L55.3127 125.73L10.0764 113.161Z" fill="#1572B6"/>
<path d="M55.38 116.112L92.0338 105.941L100.657 9.25464H55.38V116.112Z" fill="#33A9DC"/>
<path d="M55.38 50.2516H73.7293L74.9945 36.0396H55.38V22.1599H90.1495L89.8175 25.8824L86.4124 64.1313H55.38V50.2516Z" fill="white"/>
<path d="M55.4652 86.2957L55.4024 86.3136L39.9603 82.1376L38.9733 71.0688H25.052L26.9946 92.8606L55.3979 100.755L55.4652 100.737V86.2957Z" fill="#EBEBEB"/>
<path d="M72.5494 63.5431L70.8805 82.1287L55.4159 86.3047V100.746L83.8417 92.8606L84.0525 90.5167L86.4617 63.5431H72.5494Z" fill="white"/>
<path d="M55.4293 22.1599V36.0396H21.9339L21.6558 32.9188L21.0232 25.8824L20.6912 22.1599H55.4293ZM55.38 50.2516V64.1313H40.1307L39.8526 61.0105L39.2245 53.9741L38.8925 50.2516H55.38Z" fill="#EBEBEB"/>
</svg>
