<svg width="92" height="137" viewBox="0 0 92 137" fill="none" xmlns="http://www.w3.org/2000/svg">
<g clip-path="url(#clip0_27_172)">
<path d="M23.5488 136.605C36.0802 136.605 46.2505 126.435 46.2505 113.903V91.2017H23.5488C11.0175 91.2017 0.847137 101.372 0.847137 113.903C0.847137 126.435 11.0175 136.605 23.5488 136.605Z" fill="#0ACF83"/>
<path d="M0.847137 68.5C0.847137 55.9687 11.0175 45.7983 23.5488 45.7983H46.2505V91.2017H23.5488C11.0175 91.2017 0.847137 81.0314 0.847137 68.5Z" fill="#A259FF"/>
<path d="M0.847137 23.0966C0.847137 10.5653 11.0175 0.394897 23.5488 0.394897H46.2505V45.7983H23.5488C11.0175 45.7983 0.847137 35.6279 0.847137 23.0966Z" fill="#F24E1E"/>
<path d="M46.2505 0.394897H68.9522C81.4836 0.394897 91.6539 10.5653 91.6539 23.0966C91.6539 35.6279 81.4836 45.7983 68.9522 45.7983H46.2505V0.394897Z" fill="#FF7262"/>
<path d="M91.6539 68.5C91.6539 81.0314 81.4836 91.2017 68.9522 91.2017C56.4209 91.2017 46.2505 81.0314 46.2505 68.5C46.2505 55.9687 56.4209 45.7983 68.9522 45.7983C81.4836 45.7983 91.6539 55.9687 91.6539 68.5Z" fill="#1ABCFE"/>
</g>
<defs>
<clipPath id="clip0_27_172">
<rect width="90.8068" height="136.21" fill="white" transform="translate(0.847137 0.394897)"/>
</clipPath>
</defs>
</svg>
