<svg width="111" height="127" viewBox="0 0 111 127" fill="none" xmlns="http://www.w3.org/2000/svg">
<path d="M10.1984 113.798L0.117859 0.633789H110.882L100.788 113.78L55.4327 126.366L10.1984 113.798Z" fill="#E44F26"/>
<path d="M55.5 116.637L92.4584 106.451L101.153 9.61462H55.5V116.637Z" fill="#F1662A"/>
<path d="M55.5 51.9218H36.9366L35.6567 37.7119H55.5V23.8344H20.3248L20.6607 27.5608L24.1056 65.7994H55.5V51.9218ZM55.5 87.9604L55.4364 87.9784L39.8141 83.8075L38.8156 72.7404H24.7319L26.6972 94.5243L55.4364 102.417L55.5 102.399V87.9604Z" fill="#EBEBEB"/>
<path d="M55.5 51.9234V65.8018H72.4221L70.8304 83.8019L55.5 87.9775V102.417L83.6754 94.5283L83.8799 92.1846L87.1079 55.65L87.4458 51.9234H55.5ZM55.5 23.8344V37.7127H88.6952L88.9708 34.5967L89.5977 27.561L89.9268 23.8344H55.5Z" fill="white"/>
</svg>
