<svg width="191" height="171" viewBox="0 0 191 171" fill="none" xmlns="http://www.w3.org/2000/svg">
<path d="M157.04 55.4245C155.007 54.7228 152.957 54.0727 150.892 53.4748C151.239 52.0483 151.559 50.6392 151.842 49.2547C156.496 26.5207 153.454 8.20576 143.061 2.17559C133.097 -3.60532 116.802 2.4226 100.344 16.8351C98.7224 18.258 97.1365 19.722 95.588 21.2256C94.5514 20.2257 93.4965 19.2453 92.4239 18.2848C75.1757 2.87456 57.8872 -3.62033 47.506 2.4271C37.5509 8.22603 34.6031 25.4434 38.7931 46.9889C39.21 49.1228 39.6807 51.2456 40.2048 53.3554C37.7576 54.0551 35.3962 54.7999 33.1363 55.5927C12.9141 62.6875 0 73.8056 0 85.3381C0 97.2491 13.8639 109.196 34.9261 116.44C36.6337 117.025 38.3555 117.567 40.0899 118.066C39.5266 120.338 39.0265 122.626 38.5902 124.926C34.5956 146.098 37.715 162.908 47.6433 168.67C57.8976 174.621 75.1085 168.505 91.8665 153.764C93.2254 152.565 94.5544 151.333 95.8522 150.068C97.529 151.696 99.2507 153.277 101.015 154.808C117.249 168.864 133.281 174.54 143.199 168.762C153.444 162.794 156.774 144.735 152.451 122.764C152.11 121.043 151.728 119.33 151.306 117.627C152.514 117.267 153.701 116.896 154.857 116.51C176.753 109.21 191 97.4082 191 85.3381C191 73.7635 177.669 62.5704 157.04 55.4245ZM152.291 108.717C151.247 109.065 150.175 109.4 149.083 109.727C146.666 102.026 143.404 93.8383 139.411 85.3779C143.221 77.1195 146.357 69.036 148.707 61.3856C150.661 61.9547 152.557 62.5546 154.385 63.1875C172.06 69.3108 182.841 78.3628 182.841 85.3381C182.841 92.7677 171.197 102.413 152.291 108.717ZM144.447 124.359C146.358 134.073 146.631 142.857 145.364 149.725C144.227 155.895 141.94 160.009 139.111 161.657C133.092 165.163 120.22 160.606 106.337 148.584C104.696 147.16 103.094 145.691 101.534 144.177C106.917 138.255 112.295 131.369 117.545 123.722C126.778 122.898 135.502 121.549 143.413 119.709C143.794 121.25 144.139 122.801 144.447 124.359ZM65.1161 161.051C59.2354 163.14 54.5514 163.2 51.72 161.558C45.6953 158.061 43.1906 144.563 46.607 126.458C47.0131 124.318 47.4781 122.19 48.0014 120.077C55.825 121.819 64.4849 123.071 73.7402 123.826C79.0255 131.309 84.5593 138.187 90.1363 144.21C88.9511 145.364 87.7379 146.488 86.4976 147.582C79.0867 154.1 71.6608 158.725 65.1161 161.051ZM37.5658 108.671C28.2523 105.468 20.5609 101.305 15.289 96.7618C10.5513 92.6799 8.16003 88.6265 8.16003 85.3381C8.16003 78.3395 18.5285 69.4128 35.8222 63.3459C37.921 62.6101 40.1175 61.9157 42.3968 61.264C44.7873 69.087 47.9223 77.2666 51.7058 85.5378C47.8731 93.9314 44.6933 102.242 42.2796 110.157C40.6965 109.701 39.1248 109.205 37.5658 108.671ZM46.801 45.4116C43.2115 26.9524 45.5953 13.0279 51.5946 9.53312C57.9842 5.81081 72.1137 11.118 87.0065 24.4246C87.9776 25.2943 88.933 26.1816 89.8722 27.0861C84.3228 33.0825 78.8397 39.9092 73.6014 47.3478C64.6184 48.1856 56.0197 49.531 48.1141 51.3336C47.627 49.3713 47.1892 47.3969 46.801 45.4123V45.4116ZM129.19 65.8835C127.323 62.6379 125.386 59.4331 123.382 56.2714C129.476 57.047 135.315 58.0763 140.798 59.3345C139.152 64.644 137.1 70.1944 134.685 75.8852C132.92 72.5148 131.088 69.1803 129.19 65.8835ZM95.5918 32.9541C99.3551 37.057 103.124 41.6375 106.832 46.6075C99.3111 46.2501 91.7779 46.2486 84.2571 46.603C87.9682 41.6787 91.7695 37.1043 95.5918 32.9541ZM61.7781 65.9398C59.9041 69.21 58.1063 72.5238 56.386 75.8785C54.0105 70.2079 51.9774 64.632 50.3173 59.2475C55.7668 58.0207 61.5781 57.0177 67.6334 56.2564C65.6066 59.4374 63.6543 62.6658 61.7781 65.939V65.9398ZM67.8072 115.004C61.5512 114.301 55.6526 113.35 50.2047 112.156C51.8908 106.676 53.9687 100.981 56.3957 95.189C58.1228 98.5461 59.9281 101.862 61.8101 105.134C63.7455 108.497 65.7495 111.791 67.8072 115.004ZM95.8171 138.3C91.9493 134.102 88.092 129.457 84.325 124.461C87.9824 124.606 91.7106 124.679 95.5 124.679C99.3931 124.679 103.241 124.591 107.029 124.422C103.31 129.507 99.555 134.159 95.8171 138.3ZM134.762 94.8932C137.315 100.749 139.467 106.414 141.175 111.8C135.638 113.072 129.658 114.096 123.358 114.857C125.377 111.636 127.332 108.376 129.222 105.077C131.143 101.724 132.99 98.3288 134.762 94.8932ZM122.154 100.975C119.261 106.033 116.205 110.994 112.991 115.852C107.17 116.266 101.336 116.473 95.5 116.469C89.5559 116.469 83.7744 116.283 78.207 115.92C74.9095 111.074 71.7953 106.103 68.8712 101.02H68.8719C65.9615 95.9638 63.2431 90.7981 60.7223 85.5341C63.2366 80.2689 65.9469 75.1007 68.8473 70.0405L68.8465 70.0412C71.7459 64.9797 74.8352 60.0309 78.1078 55.2053C83.7878 54.7729 89.6126 54.5476 95.4993 54.5476H95.5C101.414 54.5476 107.246 54.7751 112.924 55.2106C116.164 60.0289 119.233 64.9608 122.127 69.9969C125.037 75.046 127.784 80.189 130.361 85.4177C127.81 90.6999 125.073 95.889 122.154 100.975ZM138.986 9.28837C145.382 13.0002 147.869 27.9682 143.851 47.597C143.594 48.8493 143.306 50.1249 142.993 51.4184C135.068 49.5776 126.463 48.2089 117.454 47.3583C112.206 39.8379 106.768 33.0006 101.308 27.0816C102.739 25.6938 104.204 24.342 105.701 23.0274C119.803 10.6795 132.982 5.80405 138.986 9.28837ZM95.5 68.1756C104.919 68.1756 112.556 75.8597 112.556 85.3381C112.556 94.8166 104.919 102.501 95.5 102.501C86.0806 102.501 78.4443 94.8166 78.4443 85.3381C78.4443 75.8597 86.0806 68.1756 95.5 68.1756Z" fill="#00D8FF"/>
</svg>
